<svg width="719" height="732" viewBox="0 0 719 732" fill="none" xmlns="http://www.w3.org/2000/svg">
<g filter="url(#filter0_i_18_19)">
<path d="M276.029 474.142V441.202C276.029 426.047 277.545 412.379 280.579 400.027C283.668 387.731 288.33 376.008 294.565 364.856C300.8 353.762 308.889 342.954 318.832 332.374C328.718 321.909 340.682 310.986 354.669 299.72C366.915 289.941 377.25 281.191 385.732 273.471C394.158 265.75 401.011 258.087 406.235 250.596C411.515 242.99 415.279 235.098 417.638 226.806C419.941 218.514 421.121 208.849 421.121 197.869C421.121 180.998 415.503 167.045 404.269 156.065C393.035 145.085 375.958 139.595 352.928 139.595C332.818 139.595 311.192 143.884 287.993 152.519C264.85 161.154 240.865 171.677 216.149 184.144L171.605 85.8385C184.131 78.4041 197.725 71.3701 212.442 64.6791C227.159 57.9882 242.438 52.0979 258.334 46.8938C274.149 41.7153 290.288 37.6267 306.642 34.6557C322.988 31.6819 338.997 30.1951 354.725 30.1951C384.44 30.1951 411.234 33.8551 435.107 41.1179C459.037 48.3807 479.258 59.0176 495.885 72.9141C512.512 86.8679 525.207 103.795 534.138 123.639C543.013 143.484 547.451 166.187 547.451 191.693C547.451 210.393 545.429 227.092 541.328 241.732C537.228 256.372 531.161 270.039 523.185 282.678C515.152 295.259 505.097 307.44 493.021 319.164C480.944 330.887 466.844 343.239 450.835 356.278C438.59 366.057 428.648 374.578 420.896 381.841C413.144 389.104 407.134 396.023 402.752 402.543C398.371 409.119 395.394 415.81 393.765 422.787C392.136 429.764 391.349 437.999 391.349 447.492V474.199H276.029V474.142ZM261.592 626.26C261.592 612.307 263.558 600.526 267.49 590.861C271.422 581.254 276.871 573.476 283.893 567.529C290.858 561.581 299.115 557.292 308.608 554.604C318.045 551.974 328.156 550.601 338.997 550.601C349.221 550.601 358.882 551.974 368.094 554.604C377.25 557.235 385.339 561.581 392.361 567.529C399.326 573.476 404.887 581.254 408.987 590.861C413.088 600.526 415.11 612.307 415.11 626.26C415.11 639.585 413.088 651.023 408.987 660.516C404.887 670.009 399.382 677.844 392.361 684.077C385.331 690.331 377.052 694.955 368.094 697.63C358.882 700.49 349.221 701.862 338.997 701.862C328.212 701.862 318.101 700.49 308.608 697.63C299.115 694.828 290.858 690.31 283.893 684.077C276.927 677.844 271.479 670.009 267.49 660.516C263.558 651.023 261.592 639.585 261.592 626.26Z" fill="#386183"/>
</g>
<defs>
<filter id="filter0_i_18_19" x="0" y="0" width="725" height="736" filterUnits="userSpaceOnUse" color-interpolation-filters="sRGB">
<feFlood flood-opacity="0" result="BackgroundImageFix"/>
<feBlend mode="normal" in="SourceGraphic" in2="BackgroundImageFix" result="shape"/>
<feColorMatrix in="SourceAlpha" type="matrix" values="0 0 0 0 0 0 0 0 0 0 0 0 0 0 0 0 0 0 127 0" result="hardAlpha"/>
<feOffset dx="6" dy="4"/>
<feGaussianBlur stdDeviation="13"/>
<feComposite in2="hardAlpha" operator="arithmetic" k2="-1" k3="1"/>
<feColorMatrix type="matrix" values="0 0 0 0 0.154167 0 0 0 0 0.154167 0 0 0 0 0.154167 0 0 0 1 0"/>
<feBlend mode="normal" in2="shape" result="effect1_innerShadow_18_19"/>
</filter>
</defs>
</svg>
