<svg width="36" height="38" viewBox="0 0 36 38" fill="none" xmlns="http://www.w3.org/2000/svg">
<path d="M32 -0.000976562H4C1.8 -0.000976562 0 1.89902 0 4.22125V33.7768C0 36.1011 1.8 37.999 4 37.999H32C34.2 37.999 36 36.1011 36 33.7768V4.22125C36 1.89902 34.2 -0.000976562 32 -0.000976562ZM17.968 30.6587C20.9057 30.6581 23.7229 29.4259 25.8 27.233C27.8771 25.0401 29.044 22.0662 29.044 18.9652C29.044 18.2517 28.958 17.5635 28.838 16.8879H32V32.1217C32 32.3135 31.9641 32.5035 31.8944 32.6806C31.8247 32.8577 31.7225 33.0186 31.5937 33.154C31.4649 33.2893 31.3121 33.3965 31.1439 33.4693C30.9758 33.5421 30.7957 33.5792 30.614 33.5784H5.386C5.20427 33.5792 5.02418 33.5421 4.85605 33.4693C4.68793 33.3965 4.53509 33.2893 4.40631 33.154C4.27753 33.0186 4.17534 32.8577 4.10562 32.6806C4.03589 32.5035 4 32.3135 4 32.1217V16.8879H7.098C6.976 17.5635 6.89 18.2517 6.89 18.9652C6.89053 22.0664 8.05784 25.0403 10.1353 27.2331C12.2127 29.426 15.0301 30.6581 17.968 30.6587ZM11.046 18.9652C11.046 18.0057 11.225 17.0556 11.5729 16.1691C11.9208 15.2827 12.4306 14.4772 13.0734 13.7987C13.7162 13.1203 14.4792 12.5821 15.3191 12.2149C16.1589 11.8477 17.059 11.6587 17.968 11.6587C18.877 11.6587 19.7771 11.8477 20.6169 12.2149C21.4567 12.5821 22.2198 13.1203 22.8626 13.7987C23.5054 14.4772 24.0152 15.2827 24.3631 16.1691C24.711 17.0556 24.89 18.0057 24.89 18.9652C24.89 20.9031 24.1607 22.7615 22.8626 24.1318C21.5645 25.502 19.8038 26.2718 17.968 26.2718C16.1322 26.2718 14.3715 25.502 13.0734 24.1318C11.7753 22.7615 11.046 20.9031 11.046 18.9652ZM30.614 10.5546H27.384C27.0173 10.5535 26.6659 10.3992 26.4065 10.1255C26.1472 9.85174 26.0011 9.4808 26 9.09369V5.68002C26 4.87358 26.62 4.22125 27.382 4.22125H30.612C31.38 4.22125 32 4.87358 32 5.68002V9.09158C32 9.89591 31.38 10.5546 30.614 10.5546Z" fill="#0F469B"/>
</svg>
